<svg width="16" height="19" viewBox="0 0 16 19" fill="none" xmlns="http://www.w3.org/2000/svg">
<path fill-rule="evenodd" clip-rule="evenodd" d="M11.7169 7.43413C11.3416 7.43413 11.0369 7.12949 11.0369 6.75413V4.80754C11.0369 2.90719 9.49108 1.36134 7.59073 1.36134H7.57623C6.65778 1.36134 5.79737 1.71494 5.14729 2.35957C4.49269 3.00692 4.13093 3.87097 4.12731 4.79213V6.75413C4.12731 7.12949 3.82267 7.43413 3.44731 7.43413C3.07196 7.43413 2.76732 7.12949 2.76732 6.75413V4.80754C2.77276 3.50196 3.27777 2.29701 4.18896 1.39398C5.10106 0.490045 6.30509 -0.0330952 7.59345 0.00135771C10.2409 0.00135771 12.3969 2.15739 12.3969 4.80754V6.75413C12.3969 7.12949 12.0923 7.43413 11.7169 7.43413Z" fill="#231F20"/>
<path fill-rule="evenodd" clip-rule="evenodd" d="M4.11811 7.36997C2.59674 7.36997 1.36006 8.60665 1.36006 10.128V14.0167C1.36006 15.538 2.59674 16.7747 4.11811 16.7747H11.0459C12.5663 16.7747 13.8039 15.538 13.8039 14.0167V10.128C13.8039 8.60665 12.5663 7.36997 11.0459 7.36997H4.11811ZM11.0458 18.1345H4.11803C1.84686 18.1345 0 16.2876 0 14.0164V10.1278C0 7.85662 1.84686 6.00977 4.11803 6.00977H11.0458C13.317 6.00977 15.1638 7.85662 15.1638 10.1278V14.0164C15.1638 16.2876 13.317 18.1345 11.0458 18.1345ZM7.58118 13.7587C7.20582 13.7587 6.90119 13.454 6.90119 13.0787V11.065C6.90119 10.6896 7.20582 10.385 7.58118 10.385C7.95654 10.385 8.26117 10.6896 8.26117 11.065V13.0787C8.26117 13.454 7.95654 13.7587 7.58118 13.7587Z" fill="#231F20"/>
</svg>
