<svg width="64" height="64" viewBox="0 0 64 64" fill="none" xmlns="http://www.w3.org/2000/svg">
<circle cx="32" cy="32" r="32" fill="#324A59"/>
<path d="M21.3333 31.6343C21.3333 31.128 21.7095 30.7096 22.1976 30.6434L22.3333 30.6343H42.3333C42.8856 30.6343 43.3333 31.082 43.3333 31.6343C43.3333 32.1405 42.9571 32.5589 42.469 32.6251L42.3333 32.6343H22.3333C21.7811 32.6343 21.3333 32.1866 21.3333 31.6343Z" fill="white"/>
<path d="M33.5614 24.3103C33.17 23.9206 33.1686 23.2874 33.5583 22.8961C33.9126 22.5403 34.468 22.5068 34.8602 22.7964L34.9725 22.893L43.0392 30.925C43.396 31.2803 43.4285 31.8378 43.1366 32.2299L43.0392 32.3422L34.9726 40.3756C34.5812 40.7653 33.9481 40.764 33.5584 40.3726C33.2041 40.0169 33.173 39.4613 33.4642 39.0704L33.5613 38.9584L40.916 31.6333L33.5614 24.3103Z" fill="white"/>
</svg>
