<svg width="18" height="18" viewBox="0 0 18 18" fill="none" xmlns="http://www.w3.org/2000/svg">
<path fill-rule="evenodd" clip-rule="evenodd" d="M8.83272 10.0986C8.33097 10.0986 7.83072 9.93287 7.41222 9.60137L4.04847 6.88937C3.80622 6.69437 3.76872 6.33962 3.96297 6.09812C4.15872 5.85737 4.51272 5.81912 4.75422 6.01337L8.11497 8.72237C8.53722 9.05687 9.13197 9.05687 9.55722 8.71937L12.8842 6.01487C13.1257 5.81762 13.4797 5.85512 13.6762 6.09662C13.872 6.33737 13.8352 6.69137 13.5945 6.88787L10.2615 9.59687C9.83997 9.93137 9.33597 10.0986 8.83272 10.0986Z" fill="#231F20"/>
<mask id="mask0_46_141" style="mask-type:alpha" maskUnits="userSpaceOnUse" x="0" y="1" width="17" height="16">
<path fill-rule="evenodd" clip-rule="evenodd" d="M0.75 1.5H16.8749V16.125H0.75V1.5Z" fill="white"/>
</mask>
<g mask="url(#mask0_46_141)">
<path fill-rule="evenodd" clip-rule="evenodd" d="M5.12915 15H12.4942C12.4957 14.9985 12.5017 15 12.5062 15C13.3619 15 14.1209 14.694 14.7029 14.1128C15.3787 13.44 15.7499 12.4732 15.7499 11.391V6.24C15.7499 4.14525 14.3804 2.625 12.4942 2.625H5.13065C3.2444 2.625 1.8749 4.14525 1.8749 6.24V11.391C1.8749 12.4732 2.2469 13.44 2.9219 14.1128C3.5039 14.694 4.26365 15 5.11865 15H5.12915ZM5.1164 16.125C3.95915 16.125 2.92565 15.705 2.12765 14.91C1.2389 14.0235 0.749901 12.774 0.749901 11.391V6.24C0.749901 3.53775 2.63315 1.5 5.13065 1.5H12.4942C14.9917 1.5 16.8749 3.53775 16.8749 6.24V11.391C16.8749 12.774 16.3859 14.0235 15.4972 14.91C14.6999 15.7042 13.6657 16.125 12.5062 16.125H12.4942H5.13065H5.1164Z" fill="#231F20"/>
</g>
</svg>
